<?xml version="1.0" encoding="UTF-8"?><svg id="Layer_1" xmlns="http://www.w3.org/2000/svg" viewBox="0 0 553.06 245.57"><path d="m468.2,61.58c-13.7,18.26-26.88,35.79-40.02,53.34-4.28,5.72-8.63,11.39-12.67,17.27-2.46,3.58-4.44,7.55-3.08,12.15,1.8,6.05,6.12,9.27,13.35,9.34,15.87.16,31.75.24,47.61,0,11.75-.18,18.26-7.29,18.41-20.72.29-27.13.21-54.27,0-81.41-.05-6.82-1.1-13.93-7.96-17.56-3.57-1.88-7.93-3.09-11.95-3.13-25.08-.28-50.17-.14-75.26-.13-1.4,0-3.23,0-5.08,0-.01-7.5-.07-16.44,2.6-21.75,3.05-6.05,8.76-8.68,15.19-8.73,23.68-.2,47.37-.46,71.03.12,13.89.34,27.71,2.5,40.22,9.32,16.42,8.95,25.74,23.24,29.52,41.16,1.62,7.68,2.6,15.62,2.76,23.47.31,14.82.29,29.69-.46,44.49-.84,16.64-5.72,32.11-17.18,44.76-8.59,9.48-19.66,15.04-31.99,17.52-8.94,1.8-18.14,2.89-27.26,3.13-18.04.47-36.1.41-54.14.04-10.54-.22-21.37-.55-30.52-6.87-4.47-3.09-8.83-6.68-12.25-10.85-7.99-9.76-15.52-19.91-22.98-30.09-6.86-9.35-6.05-18.91.6-27.97,11.16-15.22,22.52-30.29,33.86-45.38.53-.7,1.6-1.42,2.42-1.42,24.8-.08,49.59-.06,75.21-.06l.02-.02Z"/><path d="m115.6,183.83c7.42-9.9,14.83-19.75,22.21-29.62,9.78-13.09,19.71-26.08,29.18-39.39,2.24-3.14,3.86-7.36,4.06-11.17.34-6.38-4.74-11.19-12.44-11.32-22.11-.37-44.23-.13-66.78-.13v153.37H30.5V92.25H.11c0-6.49-.55-12.57.74-18.42,1.69-7.69,8.58-12.21,17.37-12.22,48.12-.07,96.23-.08,144.35,0,16.94.02,32.01,4.57,42.82,18.76,2.16,2.84,4.59,5.49,6.72,8.35,5.1,6.85,10.22,13.7,15.11,20.7,6.48,9.27,6.45,18.42-.26,27.6-11.07,15.12-22.34,30.11-33.62,45.08-.79,1.05-2.38,2.14-3.6,2.15-24.44.11-48.88.07-73.33.04-.2,0-.4-.21-.82-.45h0Z"/><path d="m375.58,62.05c-5.36,7.2-10.63,14.35-15.96,21.45-24.28,32.36-48.61,64.68-72.8,97.09-2.03,2.72-4.07,3.85-7.53,3.82-22.25-.17-44.51-.08-66.76-.08h-5.06c3.86-5.18,7.3-9.82,10.77-14.44,26.58-35.44,53.15-70.88,79.79-106.28.72-.96,2.17-1.95,3.28-1.95,24.43-.1,48.86-.07,73.28-.04.21,0,.42.18.98.43h.01Z"/></svg>